<svg width="402" height="340" viewBox="0 0 402 340" fill="none" xmlns="http://www.w3.org/2000/svg">
<path d="M70.624 2.23462C137.087 28.2049 151.373 104.05 181.558 160.859C196.718 189.392 218.271 214.244 232.58 243.314C255.436 289.75 286.528 308.631 329.746 335.249" stroke="#9900FF" stroke-width="3" stroke-linecap="round"/>
<path d="M332.393 337.62C332.931 337.496 333.267 336.96 333.144 336.422L331.132 327.649C331.008 327.111 330.472 326.775 329.934 326.898C329.395 327.022 329.059 327.558 329.182 328.096L330.971 335.894L323.173 337.682C322.635 337.806 322.299 338.342 322.422 338.881C322.546 339.419 323.082 339.755 323.62 339.632L332.393 337.62ZM303.473 319.837L331.638 337.492L332.7 335.798L304.535 318.142L303.473 319.837Z" fill="#9900FF"/>
</svg>
