<svg width="232" height="350" viewBox="0 0 232 350" fill="none" xmlns="http://www.w3.org/2000/svg">
<path d="M229.853 2C215.2 43.2253 199.079 83.9708 180.344 123.536C168.118 149.353 153.982 184.88 129.122 202.095C112.338 213.717 89.3156 215.641 71.6325 227.432C31.428 254.242 10.2103 297.609 7.0382 345.27" stroke="#9900FF" stroke-width="3" stroke-linecap="round"/>
<path d="M8.27718 349.469C7.85723 349.827 7.22601 349.778 6.86733 349.358L1.02223 342.514C0.663548 342.094 0.71322 341.463 1.13318 341.104C1.55313 340.746 2.18435 340.795 2.54303 341.215L7.73867 347.298L13.8219 342.103C14.2418 341.744 14.873 341.794 15.2317 342.214C15.5904 342.634 15.5407 343.265 15.1208 343.624L8.27718 349.469ZM10.6101 323.556L8.62465 348.787L6.63081 348.63L8.61629 323.399L10.6101 323.556Z" fill="#9900FF"/>
</svg>
