<svg width="229" height="64" viewBox="0 0 229 64" fill="none" xmlns="http://www.w3.org/2000/svg">
<path d="M1.0712 32.6932V27.5795L16.9235 21.2301V26.5994L6.82404 30.0938L6.9945 29.8381V30.4347L6.82404 30.179L16.9235 33.6733V39.0426L1.0712 32.6932Z" fill="#9900FF"/>
<path d="M227.923 32.6932L212.071 39.0426V33.6733L222.171 30.179L222 30.4347V29.8381L222.171 30.0938L212.071 26.5994V21.2301L227.923 27.5795V32.6932Z" fill="#9900FF"/>
<path d="M212.506 14.1591L205.475 40.2812H200.489L207.52 14.1591H212.506Z" fill="#9900FF"/>
<g filter="url(#filter0_d_37_25)">
<path d="M20.4489 39V17.1818H24.4013V26.4183H34.5114V17.1818H38.4744V39H34.5114V29.7315H24.4013V39H20.4489ZM47.3114 39.3303C46.2745 39.3303 45.3406 39.1456 44.5096 38.7763C43.6857 38.3999 43.0323 37.8459 42.5494 37.1143C42.0735 36.3828 41.8356 35.4808 41.8356 34.4084C41.8356 33.4851 42.006 32.7216 42.3469 32.1179C42.6879 31.5142 43.1531 31.0312 43.7425 30.669C44.332 30.3068 44.9961 30.0334 45.7347 29.8487C46.4805 29.657 47.2511 29.5185 48.0465 29.4332C49.0053 29.3338 49.783 29.245 50.3796 29.1669C50.9762 29.0817 51.4094 28.9538 51.6793 28.7834C51.9563 28.6058 52.0948 28.3324 52.0948 27.9631V27.8991C52.0948 27.0966 51.8569 26.4751 51.381 26.0348C50.9052 25.5945 50.2198 25.3743 49.3249 25.3743C48.3803 25.3743 47.631 25.5803 47.0771 25.9922C46.5302 26.4041 46.1609 26.8906 45.9691 27.4517L42.3683 26.9403C42.6523 25.946 43.1211 25.1151 43.7745 24.4474C44.4279 23.7727 45.2269 23.2685 46.1715 22.9347C47.1161 22.5938 48.1602 22.4233 49.3036 22.4233C50.092 22.4233 50.8768 22.5156 51.658 22.7003C52.4393 22.8849 53.1531 23.1903 53.7994 23.6165C54.4457 24.0355 54.9641 24.6072 55.3548 25.3317C55.7525 26.0561 55.9514 26.9616 55.9514 28.0483V39H52.244V36.7521H52.1161C51.8817 37.2067 51.5515 37.6328 51.1254 38.0305C50.7063 38.4212 50.1772 38.7372 49.538 38.9787C48.9059 39.2131 48.1637 39.3303 47.3114 39.3303ZM48.3129 36.4964C49.087 36.4964 49.7582 36.3437 50.3263 36.0384C50.8945 35.7259 51.3313 35.3139 51.6367 34.8026C51.9492 34.2912 52.1055 33.7337 52.1055 33.13V31.2017C51.9847 31.3011 51.7788 31.3935 51.4876 31.4787C51.2035 31.5639 50.8839 31.6385 50.5288 31.7024C50.1737 31.7663 49.8221 31.8232 49.4741 31.8729C49.1261 31.9226 48.8242 31.9652 48.5685 32.0007C47.9933 32.0788 47.4783 32.2067 47.0238 32.3842C46.5692 32.5618 46.2106 32.8104 45.9478 33.13C45.685 33.4425 45.5536 33.8473 45.5536 34.3445C45.5536 35.0547 45.8129 35.5909 46.3313 35.9531C46.8498 36.3153 47.5103 36.4964 48.3129 36.4964ZM72.7624 26.9616L69.2468 27.3452C69.1474 26.9901 68.9734 26.6562 68.7248 26.3438C68.4833 26.0312 68.1566 25.7791 67.7447 25.5874C67.3327 25.3956 66.8285 25.2997 66.2319 25.2997C65.4293 25.2997 64.7546 25.4737 64.2077 25.8217C63.668 26.1697 63.4016 26.6207 63.4087 27.1747C63.4016 27.6506 63.5756 28.0376 63.9308 28.3359C64.293 28.6342 64.8896 28.8793 65.7205 29.071L68.5117 29.6676C70.06 30.0014 71.2106 30.5305 71.9634 31.255C72.7234 31.9794 73.1069 32.9276 73.114 34.0994C73.1069 35.1293 72.805 36.0384 72.2085 36.8267C71.619 37.608 70.7987 38.2187 69.7475 38.6591C68.6964 39.0994 67.489 39.3196 66.1254 39.3196C64.1225 39.3196 62.5103 38.9006 61.2887 38.0625C60.0671 37.2173 59.3391 36.0419 59.1048 34.5362L62.8654 34.174C63.0359 34.9126 63.3981 35.4702 63.9521 35.8466C64.506 36.223 65.2269 36.4112 66.1147 36.4112C67.0309 36.4112 67.766 36.223 68.32 35.8466C68.881 35.4702 69.1616 35.005 69.1616 34.451C69.1616 33.9822 68.9805 33.5952 68.6183 33.2898C68.2631 32.9844 67.7092 32.75 66.9563 32.5866L64.1651 32.0007C62.5955 31.674 61.4343 31.1236 60.6815 30.3494C59.9286 29.5682 59.5558 28.581 59.5629 27.3878C59.5558 26.3793 59.8292 25.5057 60.3832 24.767C60.9442 24.0213 61.7219 23.446 62.7163 23.0412C63.7177 22.6293 64.8718 22.4233 66.1786 22.4233C68.0962 22.4233 69.6055 22.8317 70.7063 23.6484C71.8143 24.4652 72.4996 25.5696 72.7624 26.9616ZM80.1506 29.4119V39H76.294V22.6364H79.9801V25.4169H80.1719C80.5483 24.5007 81.1484 23.7727 81.9723 23.233C82.8033 22.6932 83.8295 22.4233 85.0511 22.4233C86.1804 22.4233 87.1641 22.6648 88.0021 23.1477C88.8473 23.6307 89.5007 24.3303 89.9624 25.2464C90.4311 26.1626 90.6619 27.2741 90.6548 28.581V39H86.7983V29.1776C86.7983 28.0838 86.5142 27.228 85.946 26.6101C85.3849 25.9922 84.6072 25.6832 83.6129 25.6832C82.9382 25.6832 82.3381 25.8324 81.8125 26.1307C81.294 26.4219 80.8857 26.8445 80.5874 27.3984C80.2962 27.9524 80.1506 28.6236 80.1506 29.4119ZM99.2841 39.3303C98.2472 39.3303 97.3132 39.1456 96.4822 38.7763C95.6584 38.3999 95.005 37.8459 94.522 37.1143C94.0462 36.3828 93.8082 35.4808 93.8082 34.4084C93.8082 33.4851 93.9787 32.7216 94.3196 32.1179C94.6605 31.5142 95.1257 31.0312 95.7152 30.669C96.3047 30.3068 96.9688 30.0334 97.7074 29.8487C98.4531 29.657 99.2237 29.5185 100.019 29.4332C100.978 29.3338 101.756 29.245 102.352 29.1669C102.949 29.0817 103.382 28.9538 103.652 28.7834C103.929 28.6058 104.067 28.3324 104.067 27.9631V27.8991C104.067 27.0966 103.83 26.4751 103.354 26.0348C102.878 25.5945 102.192 25.3743 101.298 25.3743C100.353 25.3743 99.6037 25.5803 99.0497 25.9922C98.5028 26.4041 98.1335 26.8906 97.9418 27.4517L94.3409 26.9403C94.625 25.946 95.0938 25.1151 95.7472 24.4474C96.4006 23.7727 97.1996 23.2685 98.1442 22.9347C99.0888 22.5938 100.133 22.4233 101.276 22.4233C102.065 22.4233 102.849 22.5156 103.631 22.7003C104.412 22.8849 105.126 23.1903 105.772 23.6165C106.418 24.0355 106.937 24.6072 107.327 25.3317C107.725 26.0561 107.924 26.9616 107.924 28.0483V39H104.217V36.7521H104.089C103.854 37.2067 103.524 37.6328 103.098 38.0305C102.679 38.4212 102.15 38.7372 101.511 38.9787C100.879 39.2131 100.136 39.3303 99.2841 39.3303ZM100.286 36.4964C101.06 36.4964 101.731 36.3437 102.299 36.0384C102.867 35.7259 103.304 35.3139 103.609 34.8026C103.922 34.2912 104.078 33.7337 104.078 33.13V31.2017C103.957 31.3011 103.751 31.3935 103.46 31.4787C103.176 31.5639 102.857 31.6385 102.501 31.7024C102.146 31.7663 101.795 31.8232 101.447 31.8729C101.099 31.9226 100.797 31.9652 100.541 32.0007C99.9659 32.0788 99.451 32.2067 98.9964 32.3842C98.5419 32.5618 98.1832 32.8104 97.9205 33.13C97.6577 33.4425 97.5263 33.8473 97.5263 34.3445C97.5263 35.0547 97.7855 35.5909 98.304 35.9531C98.8224 36.3153 99.483 36.4964 100.286 36.4964ZM111.802 39V22.6364H115.658V39H111.802ZM113.741 20.3139C113.13 20.3139 112.604 20.1115 112.164 19.7067C111.724 19.2947 111.504 18.8011 111.504 18.2259C111.504 17.6435 111.724 17.1499 112.164 16.745C112.604 16.3331 113.13 16.1271 113.741 16.1271C114.359 16.1271 114.884 16.3331 115.317 16.745C115.758 17.1499 115.978 17.6435 115.978 18.2259C115.978 18.8011 115.758 19.2947 115.317 19.7067C114.884 20.1115 114.359 20.3139 113.741 20.3139ZM123.481 29.4119V39H119.624V22.6364H123.31V25.4169H123.502C123.878 24.5007 124.479 23.7727 125.302 23.233C126.133 22.6932 127.16 22.4233 128.381 22.4233C129.51 22.4233 130.494 22.6648 131.332 23.1477C132.177 23.6307 132.831 24.3303 133.292 25.2464C133.761 26.1626 133.992 27.2741 133.985 28.581V39H130.128V29.1776C130.128 28.0838 129.844 27.228 129.276 26.6101C128.715 25.9922 127.937 25.6832 126.943 25.6832C126.268 25.6832 125.668 25.8324 125.143 26.1307C124.624 26.4219 124.216 26.8445 123.917 27.3984C123.626 27.9524 123.481 28.6236 123.481 29.4119ZM152.911 39H145.517V17.1818H153.06C155.226 17.1818 157.087 17.6186 158.642 18.4922C160.205 19.3587 161.405 20.6051 162.243 22.2315C163.081 23.858 163.5 25.804 163.5 28.0696C163.5 30.3423 163.078 32.2955 162.232 33.929C161.394 35.5625 160.183 36.8161 158.6 37.6896C157.023 38.5632 155.127 39 152.911 39ZM149.47 35.5803H152.719C154.239 35.5803 155.507 35.3033 156.522 34.7493C157.538 34.1882 158.301 33.3537 158.813 32.2457C159.324 31.1307 159.58 29.7386 159.58 28.0696C159.58 26.4006 159.324 25.0156 158.813 23.9148C158.301 22.8068 157.545 21.9794 156.544 21.4325C155.549 20.8786 154.313 20.6016 152.836 20.6016H149.47V35.5803ZM174.329 39.3196C172.689 39.3196 171.272 38.9787 170.079 38.2969C168.893 37.608 167.98 36.6349 167.341 35.3778C166.702 34.1136 166.382 32.6257 166.382 30.9141C166.382 29.2308 166.702 27.7536 167.341 26.4822C167.987 25.2038 168.889 24.2095 170.047 23.4993C171.204 22.782 172.564 22.4233 174.127 22.4233C175.135 22.4233 176.087 22.5866 176.982 22.9134C177.884 23.233 178.68 23.7301 179.368 24.4048C180.064 25.0795 180.611 25.9389 181.009 26.983C181.407 28.0199 181.606 29.2557 181.606 30.6903V31.8729H168.193V29.2734H177.909C177.902 28.5348 177.742 27.8778 177.43 27.3026C177.117 26.7202 176.68 26.2621 176.119 25.9283C175.565 25.5945 174.919 25.4276 174.18 25.4276C173.392 25.4276 172.699 25.6193 172.103 26.0028C171.506 26.3793 171.041 26.8764 170.707 27.4943C170.381 28.1051 170.214 28.7763 170.206 29.5078V31.777C170.206 32.7287 170.381 33.5455 170.729 34.2273C171.077 34.902 171.563 35.4205 172.188 35.7827C172.813 36.1378 173.545 36.3153 174.383 36.3153C174.944 36.3153 175.452 36.2372 175.906 36.081C176.361 35.9176 176.755 35.6797 177.089 35.3672C177.422 35.0547 177.675 34.6676 177.845 34.206L181.446 34.6108C181.219 35.5625 180.785 36.3935 180.146 37.1037C179.514 37.8068 178.704 38.3537 177.717 38.7443C176.73 39.1278 175.601 39.3196 174.329 39.3196ZM199.016 22.6364L193.189 39H188.927L183.1 22.6364H187.212L190.973 34.7919H191.143L194.914 22.6364H199.016Z" fill="black"/>
</g>
<defs>
<filter id="filter0_d_37_25" x="0.546074" y="0.204913" width="218.373" height="63.0087" filterUnits="userSpaceOnUse" color-interpolation-filters="sRGB">
<feFlood flood-opacity="0" result="BackgroundImageFix"/>
<feColorMatrix in="SourceAlpha" type="matrix" values="0 0 0 0 0 0 0 0 0 0 0 0 0 0 0 0 0 0 127 0" result="hardAlpha"/>
<feOffset dy="3.98056"/>
<feGaussianBlur stdDeviation="9.95139"/>
<feComposite in2="hardAlpha" operator="out"/>
<feColorMatrix type="matrix" values="0 0 0 0 0 0 0 0 0 0 0 0 0 0 0 0 0 0 0.25 0"/>
<feBlend mode="normal" in2="BackgroundImageFix" result="effect1_dropShadow_37_25"/>
<feBlend mode="normal" in="SourceGraphic" in2="effect1_dropShadow_37_25" result="shape"/>
</filter>
</defs>
</svg>
